<?xml version="1.0" encoding="UTF-8" standalone="no" ?>
<!DOCTYPE svg PUBLIC "-//W3C//DTD SVG 1.1//EN" "http://www.w3.org/Graphics/SVG/1.1/DTD/svg11.dtd">
<svg xmlns="http://www.w3.org/2000/svg" xmlns:xlink="http://www.w3.org/1999/xlink" version="1.1" width="500" height="500" viewBox="0 0 500 500" xml:space="preserve">
<desc>Created with Fabric.js 4.6.0</desc>
<defs>
</defs>
<g transform="matrix(1 0 0 1 250 250)" id="cTXp1uYPaCIBNa2WP4sw1"  >
<linearGradient id="SVGID_415" gradientUnits="userSpaceOnUse" gradientTransform="matrix(1 0 0 1 0 0)"  x1="382.0922041639002" y1="71.80851348745395" x2="70.92199045184606" y2="420.21277389676436">
<stop offset="0%" style="stop-color:#6927D3;stop-opacity: 1"/>
<stop offset="24.83648281366852%" style="stop-color:#6927D3;stop-opacity: 1"/>
<stop offset="100%" style="stop-color:#411B7F;stop-opacity: 1"/>
</linearGradient>
<path style="stroke: rgb(249,211,237); stroke-width: 0; stroke-dasharray: none; stroke-linecap: butt; stroke-dashoffset: 0; stroke-linejoin: miter; stroke-miterlimit: 4; fill: url(#SVGID_415); fill-rule: nonzero; opacity: 1;" vector-effect="non-scaling-stroke"  transform=" translate(-250, -250)" d="M 250 0 C 303.60544 0 353.28774 16.89964 394.00625 45.65826 L 343.94416 133.08309 C 318.22869000000003 112.38927 285.55238 99.99999 250 99.99999 C 167.2 99.99999 100 167.19999 100 249.99999 C 100 332.79999 167.2 399.99999 250 399.99999 C 332.8 399.99999 400 332.79999000000004 400 249.99999000000003 C 400 202.77305 378.13809 160.62120000000004 343.98902 133.11920000000003 L 471.02124 133.11920000000003 C 489.51986999999997 168.00550000000004 500 207.78630000000004 500 249.99999000000003 C 500 387.99999 388 499.99999 250 499.99999 C 112 499.99999 0 387.99999 0 249.99999000000003 C 0 111.99999000000003 112 -0.000009999999974752427 250 -0.000009999999974752427 z" stroke-linecap="round" />
</g>
</svg>