<svg xmlns="http://www.w3.org/2000/svg" viewBox="-3.38 92.84 475.34 219.56">
  <defs>
    <linearGradient id="b" x1="169.08" x2="169.08" y1="68.51" y2="322.36" gradientTransform="matrix(.99376 -.11154 .0419 .37333 132.6 173)" gradientUnits="userSpaceOnUse" spreadMethod="pad">
      <stop offset="0" stop-color="#5e24bb"/>
      <stop offset="1" stop-color="#331465"/>
    </linearGradient>
  </defs>
  <g transform="translate(386.42 213.83) scale(.2288)">
    <linearGradient id="a" x1="382.09" x2="70.92" y1="71.81" y2="420.21" gradientUnits="userSpaceOnUse">
      <stop offset="0" stop-color="#6927d3"/>
      <stop offset=".25" stop-color="#6927d3"/>
      <stop offset="1" stop-color="#411b7f"/>
    </linearGradient>
    <path fill="url(#a)" d="M250 0c53.6 0 103.29 16.9 144 45.66l-50.06 87.42A149.34 149.34 0 0 0 250 100c-82.8 0-150 67.2-150 150s67.2 150 150 150 150-67.2 150-150c0-47.23-21.86-89.38-56.01-116.88h127.03A248.77 248.77 0 0 1 500 250c0 138-112 250-250 250S0 388 0 250 112 0 250 0z" transform="translate(-250 -250)" vector-effect="non-scaling-stroke"/>
  </g>
  <path fill="url(#b)" d="M63.23 244.74h65.84v24.91H32.22v-150.5h31Zm133.13 26.98q-24.6 0-40.06-15.1-15.45-15.08-15.45-40.2v-2.9q0-16.85 6.51-30.13 6.52-13.28 18.45-20.47 11.94-7.18 27.24-7.18 22.95 0 36.13 14.47 13.18 14.47 13.18 41.04v12.2h-71.22q1.45 10.95 8.73 17.57 7.3 6.61 18.45 6.61 17.27 0 26.98-12.5l14.68 16.43q-6.72 9.51-18.19 14.84-11.47 5.32-25.43 5.32Zm-3.41-91.8q-8.89 0-14.42 6-5.53 6-7.08 17.16H213v-2.37q-.2-9.93-5.37-15.36-5.17-5.42-14.68-5.42Zm102.13-49.6v27.49h19.12v21.91h-19.12v55.82q0 6.2 2.38 8.9 2.37 2.68 9.1 2.68 4.95 0 8.78-.72v22.63q-8.79 2.69-18.1 2.69-31.42 0-32.04-31.73v-60.27h-16.33v-21.91h16.33v-27.5Z" paint-order="fill"/>
</svg>